Coordinates
version=1
nRows=16
nColumns=40
inDegrees=yes

Units are S.I. units (second, meters, Newtons, ...)
Angles are in degrees.

endheader
time	pelvis_tilt	pelvis_list	pelvis_rotation	pelvis_tx	pelvis_ty	pelvis_tz	hip_flexion_r	hip_adduction_r	hip_rotation_r	knee_angle_r	knee_angle_r_beta	ankle_angle_r	subtalar_angle_r	mtp_angle_r	hip_flexion_l	hip_adduction_l	hip_rotation_l	knee_angle_l	knee_angle_l_beta	ankle_angle_l	subtalar_angle_l	mtp_angle_l	lumbar_extension	lumbar_bending	lumbar_rotation	arm_flex_r	arm_add_r	arm_rot_r	elbow_flex_r	pro_sup_r	wrist_flex_r	wrist_dev_r	arm_flex_l	arm_add_l	arm_rot_l	elbow_flex_l	pro_sup_l	wrist_flex_l	wrist_dev_l
      0.00000000	     -2.57762047	      1.95005031	      1.99265075	     -1.39229019	      0.88890152	      1.45476012	     -5.75628712	     -2.12240901	    -28.59715531	    -18.78451883	     -0.32785170	     15.13418189	     -1.50751422	     -1.69561699	     25.78426334	      0.82306858	     10.61121246	    -14.37103596	     -0.25082189	     -1.14708046	      2.04366755	     -3.97132415	    -12.29752767	     -0.04962581	      8.96438032	     19.83122768	    -11.36625679	     25.99870021	     24.97384577	     89.95437384	      0.00000000	      0.00000000	     -0.36714398	      7.62552725	    -15.95586576	     20.42665056	     89.95437384	      0.00000000	      0.00000000
      0.01000000	     -2.60437976	      1.85851650	      1.90605243	     -1.38720554	      0.88826554	      1.45435546	     -6.00789381	     -2.09742053	    -28.33890910	    -18.93401701	     -0.33046094	     15.04317294	     -1.45736725	     -1.71738685	     25.86623745	      0.89237896	     10.23826333	    -14.17993200	     -0.24748650	     -1.26059110	      1.95172446	     -4.07247615	    -12.24903020	     -0.12065011	      9.07682612	     19.81413792	    -11.26679574	     26.21941935	     24.66319712	     89.95437384	      0.00000000	      0.00000000	     -0.28721757	      7.77736153	    -15.94656925	     20.52142291	     89.95437384	      0.00000000	      0.00000000
      0.02000000	     -2.73169532	      1.79762825	      1.76945615	     -1.38184905	      0.88753543	      1.45405577	     -6.09818101	     -2.15500475	    -28.08510014	    -19.23885583	     -0.33578138	     14.80008054	     -1.45396601	     -1.69264838	     26.14465421	      0.99593951	     10.07670698	    -14.36359463	     -0.25069202	     -1.30711249	      1.91454499	     -4.01130025	    -12.08780657	     -0.27748159	      9.14685650	     19.55374958	    -11.20860971	     26.19805503	     24.79635273	     89.95437384	      0.00000000	      0.00000000	     -0.31705794	      7.99606901	    -15.84072354	     20.73566271	     89.95437384	      0.00000000	      0.00000000
      0.03000000	     -2.50141812	      1.92331814	      1.36740415	     -1.37573836	      0.88757770	      1.45353463	     -6.72896595	     -2.48811451	    -27.97640003	    -19.24962403	     -0.33596932	     14.59002617	     -1.08220047	     -1.87003215	     25.45987362	      0.83059585	      9.56373795	    -13.73361938	     -0.23969688	     -1.57807256	      2.58485799	     -4.59053373	    -12.24229367	     -0.57601404	      9.36534318	     19.59727010	    -11.14154964	     26.93375364	     24.24179222	     89.95437384	      0.00000000	      0.00000000	     -0.31104208	      8.10084561	    -15.73118466	     20.67392963	     89.95437384	      0.00000000	      0.00000000
      0.04000000	     -2.67449769	      1.84390183	      1.22627956	     -1.37002033	      0.88689230	      1.45300147	     -6.77446990	     -2.55015240	    -27.71233101	    -19.57085674	     -0.34157589	     14.34465214	     -1.08336059	     -1.84412769	     25.63417246	      0.90951548	      9.40945997	    -13.95907219	     -0.24363177	     -1.64113794	      2.52265781	     -4.52246077	    -12.02511464	     -0.67766171	      9.43144997	     19.30677547	    -11.11441938	     26.89054191	     24.32489376	     89.95437384	      0.00000000	      0.00000000	     -0.36578048	      8.31116792	    -15.62167415	     20.84668440	     89.95437384	      0.00000000	      0.00000000
      0.05000000	     -2.81272342	      1.75581784	      0.90608432	     -1.36389817	      0.88643520	      1.45237433	     -6.89883666	     -2.65471631	    -27.56320785	    -19.77032501	     -0.34505727	     14.16069618	     -1.06502464	     -1.83506961	     25.55429406	      1.00419344	      9.23915682	    -13.96246223	     -0.24369094	     -1.66722585	      2.45833259	     -4.52151524	    -11.74494937	     -0.74558870	      9.68024324	     19.12262458	    -11.05520455	     26.97572168	     23.88332648	     89.95437384	      0.00000000	      0.00000000	     -0.36350531	      8.40496002	    -15.46067938	     20.76216903	     89.95437384	      0.00000000	      0.00000000
      0.06000000	     -2.97677196	      1.68567307	      0.72195247	     -1.35769333	      0.88589331	      1.45160352	     -6.93004753	     -2.75553859	    -27.17755562	    -20.16450838	     -0.35193706	     13.83138288	     -1.04950350	     -1.80241667	     25.59516949	      1.03919626	      9.05071036	    -14.29719748	     -0.24953317	     -1.71370794	      2.39941110	     -4.44368596	    -11.49317741	     -0.84141687	      9.66276449	     18.77188695	    -11.07425305	     26.90373606	     23.99651012	     89.95437384	      0.00000000	      0.00000000	     -0.50344757	      8.62968401	    -15.31366495	     20.92289027	     89.95437384	      0.00000000	      0.00000000
      0.07000000	     -2.93400862	      1.69870267	      0.19826435	     -1.35101835	      0.88592723	      1.45088726	     -7.18903441	     -3.04462868	    -26.74111983	    -20.48295110	     -0.35749494	     13.28547262	     -0.96985064	     -1.77385618	     24.96856737	      1.01990067	      8.92085081	    -14.06830937	     -0.24553832	     -1.44325812	      2.42809927	     -4.53274696	    -11.39226251	     -0.99181533	      9.89642696	     18.78047372	    -10.86182214	     27.01381571	     23.07492545	     89.95437384	      0.00000000	      0.00000000	     -0.36257481	      8.54521437	    -14.78966169	     20.29989992	     89.95437384	      0.00000000	      0.00000000
      0.08000000	     -3.13284360	      1.61609361	      0.00656450	     -1.34434620	      0.88547101	      1.44992392	     -7.19384348	     -3.14353953	    -26.37168704	    -20.87514548	     -0.36434002	     12.95718353	     -0.97441311	     -1.73720620	     24.88286131	      1.02525323	      8.76136530	    -14.43732765	     -0.25197890	     -1.49635113	      2.38773468	     -4.44868513	    -11.06822628	     -1.07124971	      9.84764209	     18.33484895	    -10.93467900	     26.92471812	     23.20452072	     89.95437384	      0.00000000	      0.00000000	     -0.55117768	      8.75998106	    -14.61834586	     20.48144846	     89.95437384	      0.00000000	      0.00000000
      0.09000000	     -2.78368292	      1.78314181	     -0.67229419	     -1.33687642	      0.88608993	      1.44902260	     -7.85548702	     -3.63130069	    -25.82015363	    -21.06430207	     -0.36764143	     12.17415603	     -1.20059736	     -1.64792617	     23.50404645	      0.75491294	      8.58353965	    -13.78461700	     -0.24058695	     -1.39005805	      3.25248569	     -4.60193968	    -11.28508289	     -1.40619580	     10.09479088	     18.24755622	    -10.74109662	     26.67192643	     22.48629700	     89.95437384	      0.00000000	      0.00000000	     -0.51608079	      8.40422481	    -12.47333930	     19.87699823	     89.95437384	      0.00000000	      0.00000000
      0.10000000	     -2.99675983	      1.67781479	     -0.81886784	     -1.32981300	      0.88562551	      1.44769036	     -7.82792104	     -3.73245859	    -25.39057174	    -21.51914403	     -0.37557992	     11.82497596	     -1.18584163	     -1.61128199	     23.44157451	      0.74014744	      8.42798789	    -14.19859525	     -0.24781224	     -1.56908736	      3.17753848	     -4.48934213	    -10.91313731	     -1.41259772	      9.96892711	     17.76433728	    -10.85616757	     26.56964874	     22.62659457	     89.95437384	      0.00000000	      0.00000000	     -0.70909885	      8.60461774	    -12.34739189	     20.08306055	     89.95437384	      0.00000000	      0.00000000
      0.11000000	     -3.14262879	      1.79282297	     -1.31992836	     -1.32279649	      0.88584641	      1.44631476	     -7.65058227	     -4.24950386	    -24.76169533	    -22.21705182	     -0.38776070	     10.76190808	     -1.45070007	     -1.46150940	     22.85311445	      0.56617880	      8.66254520	    -13.42942422	     -0.23438767	     -3.68515829	      3.26690193	     -4.26501940	    -10.59881866	     -1.63572217	     10.01549445	     17.70613512	    -10.66225640	     26.49892823	     21.65304611	     89.95437384	      0.00000000	      0.00000000	     -0.59908257	      8.46256668	    -11.72307769	     19.45117107	     89.95437384	      0.00000000	      0.00000000
      0.12000000	     -3.32815467	      1.72410227	     -1.40619149	     -1.31559713	      0.88588862	      1.44488093	     -7.61926259	     -4.38039052	    -24.30870634	    -22.70460063	     -0.39627004	     10.42353215	     -1.44662404	     -1.42414179	     22.83329754	      0.58039946	      8.54102812	    -13.76209928	     -0.24019394	     -3.78123346	      3.16162246	     -4.17908623	    -10.30504935	     -1.70722890	      9.76034636	     17.21174069	    -10.77279846	     26.38169623	     21.79832930	     89.95437384	      0.00000000	      0.00000000	     -0.73803085	      8.64464703	    -11.60679630	     19.62303445	     89.95437384	      0.00000000	      0.00000000
      0.13000000	     -3.35766945	      2.21988005	     -1.85454407	     -1.30833956	      0.88662750	      1.44304223	     -7.33155862	     -5.42500907	    -23.80818784	    -23.84713693	     -0.41621106	      9.10039862	     -2.15957133	     -1.16707574	     21.90875112	     -0.01378657	      8.78522530	    -12.61187479	     -0.22011874	     -4.91614443	      2.59104147	     -4.27891988	    -10.11787741	     -2.31999106	      9.59936902	     17.18969771	    -10.49638744	     26.11122402	     20.74554749	     89.95437384	      0.00000000	      0.00000000	     -0.46231021	      8.48975287	    -10.97418306	     18.73754275	     89.95437384	      0.00000000	      0.00000000
      0.14000000	     -3.52704880	      2.13817983	     -1.85229148	     -1.30069078	      0.88697652	      1.44143962	     -7.28637750	     -5.53012509	    -23.30743967	    -24.37844261	     -0.42548409	      8.73603414	     -2.12099468	     -1.13094657	     21.83465606	      0.00263915	      8.74649834	    -13.03993374	     -0.22758978	     -4.91319711	      2.55924234	     -4.18971463	     -9.82111985	     -2.36702264	      9.25349769	     16.61824393	    -10.64458488	     25.96397929	     20.90615555	     89.95437384	      0.00000000	      0.00000000	     -0.60224595	      8.66285032	    -10.86929433	     18.95281162	     89.95437384	      0.00000000	      0.00000000
      0.15000000	     -3.49772161	      2.22058778	     -1.94691645	     -1.29317523	      0.88793072	      1.43939966	     -7.09879583	     -6.02129420	    -22.86033618	    -25.49685790	     -0.44500412	      7.45014492	     -2.49087562	     -0.92518000	     21.24746274	     -0.14846586	      9.35601223	    -12.91171455	     -0.22535193	     -4.50102249	      2.57658314	     -4.23796087	     -9.70833494	     -2.49107906	      8.71697513	     16.55694789	    -10.41934392	     25.73070086	     20.02308892	     89.95437384	      0.00000000	      0.00000000	     -0.35561698	      8.58410639	    -10.82019388	     18.18158189	     89.95437384	      0.00000000	      0.00000000
